<svg class="ldi-pxj4v4" width="200px"  height="200px"  xmlns="http://www.w3.org/2000/svg" xmlns:xlink="http://www.w3.org/1999/xlink" viewBox="0 0 100 100" preserveAspectRatio="xMidYMid" style="background: none;"><!--?xml version="1.0" encoding="utf-8"?--><!--Generator: Adobe Illustrator 21.0.0, SVG Export Plug-In . SVG Version: 6.00 Build 0)--><svg version="1.1" id="圖層_1" xmlns="http://www.w3.org/2000/svg" xmlns:xlink="http://www.w3.org/1999/xlink" x="0px" y="0px" viewBox="0 0 100 100" style="transform-origin: 50px 50px 0px;" xml:space="preserve"><g style="transform-origin: 50px 50px 0px;"><g style="transform-origin: 50px 50px 0px; transform: scale(0.6);"><g style="transform-origin: 50px 50px 0px;"><g><style type="text/css" style="transform-origin: 50px 50px 0px; animation-duration: 1s; animation-delay: 0.0616989s; animation-direction: normal;" class="ld ld-fade">.st0{fill:#D1D1D1;} .st1{fill:#454545;} .st2{fill:#464646;} .st3{fill:#474747;} .st4{fill:#494949;} .st5{fill:#D1D2D1;}</style><g style="transform-origin: 50px 50px 0px; animation-duration: 1s; animation-delay: 0.288881s; animation-direction: normal;" class="ld ld-fade"><path class="st0" d="M89.692,27.512l-3.991-3.053v-8.393c0-3.57-2.904-6.474-6.474-6.474h-2.267c-2.58,0-4.807,1.521-5.846,3.711 l-2.698-2.064c-1.242-0.951-2.788-1.475-4.352-1.475c-1.565,0-3.111,0.524-4.351,1.473L38.435,27.513 c-1.518,1.161-2.494,2.845-2.746,4.742c-0.253,1.897,0.248,3.779,1.407,5.293c0.036,0.047,0.074,0.092,0.111,0.137 c-0.418-0.076-0.844-0.118-1.271-0.118c-1.564,0-3.11,0.523-4.35,1.473L10.306,55.313c-3.136,2.399-3.736,6.902-1.339,10.036 c1.276,1.672,3.173,2.675,5.254,2.799V82.77c0,4.211,3.427,7.638,7.638,7.638h18.124h7.876h2.148c4.212,0,7.638-3.427,7.638-7.638 V68.149c2.078-0.123,3.974-1.127,5.255-2.799c0.843-1.102,1.307-2.374,1.429-3.663c0.73,0.583,1.649,0.921,2.624,0.921h11.181 c4.212,0,7.638-3.427,7.638-7.638V40.348c2.078-0.123,3.974-1.127,5.255-2.799C93.427,34.414,92.827,29.912,89.692,27.512z" fill="#26687d" style="fill: rgb(38, 104, 125);"></path></g><g style="transform-origin: 50px 50px 0px; animation-duration: 1s; animation-delay: 0.0211905s; animation-direction: normal;" class="ld ld-fade"><path class="st2" d="M50.714,62.609L38.66,53.389c-1.499-1.146-3.951-1.146-5.449,0l-12.055,9.221 c-1.499,1.146-2.725,3.627-2.725,5.515V82.77c0,1.886,1.544,3.43,3.431,3.43h18.124V74.359c0-1.018,0.833-1.85,1.85-1.85h4.176 c1.018,0,1.85,0.833,1.85,1.85V86.2h2.148c1.887,0,3.431-1.543,3.431-3.43V68.123C53.44,66.236,52.213,63.756,50.714,62.609z M34.416,73.813c0,0.844-0.69,1.534-1.534,1.534h-7.188c-0.843,0-1.533-0.69-1.533-1.534v-5.884c0-0.844,0.69-1.534,1.533-1.534 h7.189c0.843,0,1.533,0.69,1.533,1.534L34.416,73.813z" fill="#00c0ff" style="fill: rgb(0, 192, 255);"></path></g><g style="transform-origin: 50px 50px 0px; animation-duration: 1s; animation-delay: 0.159552s; animation-direction: normal;" class="ld ld-fade"><path class="st2" d="M81.493,16.067c0-1.246-1.02-2.266-2.266-2.266h-2.267c-1.247,0-2.266,1.02-2.266,2.266v3.546l6.798,5.198 V16.067L81.493,16.067z" fill="#00c0ff" style="fill: rgb(0, 192, 255);"></path></g><g style="transform-origin: 50px 50px 0px; animation-duration: 1s; animation-delay: 0.285873s; animation-direction: normal;" class="ld ld-fade"><path class="st2" d="M53.365,43.868c0-1.247-1.02-2.266-2.266-2.266h-2.267c-1.247,0-2.266,1.02-2.266,2.266v3.546l6.798,5.199 L53.365,43.868L53.365,43.868z" fill="#00c0ff" style="fill: rgb(0, 192, 255);"></path></g><g style="transform-origin: 50px 50px 0px; animation-duration: 1s; animation-delay: 0.0276432s; animation-direction: normal;" class="ld ld-fade"><path class="st2" d="M87.136,30.855L65.857,14.581c-0.511-0.392-1.148-0.608-1.793-0.608c-0.645,0-1.282,0.215-1.794,0.608 L40.992,30.855c-1.293,0.989-1.541,2.846-0.552,4.14c0.562,0.736,1.418,1.159,2.346,1.159c0.653,0,1.273-0.21,1.792-0.607 c0,0,11.707-9.515,16.999-13.339c0.008-0.006,0.016-0.008,0.024-0.013c0.661-0.474,1.518-0.763,2.457-0.763 c0.917,0,1.757,0.273,2.411,0.727c0.019,0.01,0.038,0.018,0.058,0.032c5.279,3.813,17.022,13.355,17.022,13.355 c0.519,0.397,1.138,0.607,1.791,0.607c0.928,0,1.783-0.422,2.347-1.16C88.676,33.701,88.429,31.844,87.136,30.855z" fill="#00c0ff" style="fill: rgb(0, 192, 255);"></path></g><g style="transform-origin: 50px 50px 0px; animation-duration: 1s; animation-delay: 0.134895s; animation-direction: normal;" class="ld ld-fade"><path class="st2" d="M59.008,58.655L37.729,42.382c-0.511-0.392-1.148-0.607-1.793-0.607c-0.645,0-1.282,0.215-1.794,0.607 L12.863,58.655c-1.293,0.989-1.541,2.846-0.552,4.14c0.562,0.737,1.418,1.159,2.346,1.159c0.652,0,1.273-0.21,1.792-0.607 c0,0,11.707-9.515,16.999-13.339c0.008-0.006,0.016-0.008,0.024-0.013c0.66-0.474,1.517-0.763,2.457-0.763 c0.917,0,1.757,0.273,2.411,0.728c0.019,0.01,0.038,0.018,0.057,0.032c5.28,3.813,17.021,13.355,17.021,13.355 c0.52,0.397,1.139,0.607,1.792,0.607c0.928,0,1.783-0.422,2.347-1.16C60.548,61.501,60.3,59.645,59.008,58.655z" fill="#00c0ff" style="fill: rgb(0, 192, 255);"></path></g><g style="transform-origin: 50px 50px 0px; animation-duration: 1s; animation-delay: 0.150612s; animation-direction: normal;" class="ld ld-fade"><path class="st2" d="M78.843,34.808l-12.054-9.22c-1.499-1.147-3.951-1.147-5.449,0l-12.056,9.22c-0.224,0.171-0.44,0.375-0.649,0.6 c0.067-0.001,0.132-0.009,0.199-0.009H51.1c5.426,0,9.84,4.414,9.84,9.84v6.729l2.67,2.042c1.541,1.181,2.664,2.708,3.346,4.389 h1.157h7.877h2.148c1.887,0,3.431-1.544,3.431-3.431V40.322C81.568,38.436,80.342,35.955,78.843,34.808z" fill="#00c0ff" style="fill: rgb(0, 192, 255);"></path></g><metadata xmlns:d="https://loading.io/stock/" style="transform-origin: 50px 50px 0px; animation-duration: 1s; animation-delay: 0.295412s; animation-direction: normal;" class="ld ld-fade">
<d:name style="transform-origin: 50px 50px 0px; animation-duration: 1s; animation-delay: 0.204351s; animation-direction: normal;" class="ld ld-fade">village</d:name>
<d:tags style="transform-origin: 50px 50px 0px; animation-duration: 1s; animation-delay: 0.16309s; animation-direction: normal;" class="ld ld-fade">town,countryside,down town,house,rural,village,map</d:tags>
<d:license style="transform-origin: 50px 50px 0px; animation-duration: 1s; animation-delay: 0.282013s; animation-direction: normal;" class="ld ld-fade">cc0</d:license>
<d:slug style="transform-origin: 50px 50px 0px; animation-duration: 1s; animation-delay: 0.232682s; animation-direction: normal;" class="ld ld-fade">pxj4v4</d:slug>
</metadata></g></g></g></g><style type="text/css" style="transform-origin: 50px 50px 0px; animation-duration: 1s; animation-delay: 0.180766s; animation-direction: normal;" class="ld ld-fade">path,ellipse,circle,rect,polygon,polyline,line { stroke-width: 0; }@keyframes ld-fade {
  0% {
    opacity: 1;
  }
  100% {
    opacity: 0;
  }
}
@-webkit-keyframes ld-fade {
  0% {
    opacity: 1;
  }
  100% {
    opacity: 0;
  }
}
.ld.ld-fade {
  -webkit-animation: ld-fade 1s infinite linear;
  animation: ld-fade 1s infinite linear;
}
</style></svg></svg>